<svg width="253" height="58" viewBox="0 0 253 58" fill="none" xmlns="http://www.w3.org/2000/svg">
<path d="M54.8169 11.7139H32.7139V57H22.6846V11.7139H0.542969V1.68457H54.8169V11.7139ZM107.702 34.3955H76.0327V24.2891H107.702V34.3955ZM112.215 57H76.0327C74.644 57 73.1268 56.7557 71.481 56.2671C69.8351 55.7785 68.305 54.9813 66.8906 53.8755C65.502 52.744 64.3319 51.291 63.3804 49.5166C62.4546 47.7165 61.9917 45.5177 61.9917 42.9204V6.73779C61.9917 6.04346 62.1203 5.3877 62.3774 4.77051C62.6346 4.15332 62.9818 3.61328 63.4189 3.15039C63.8818 2.6875 64.4219 2.32747 65.0391 2.07031C65.6562 1.81315 66.3249 1.68457 67.0449 1.68457H112.215V11.7139H72.021V42.9204C72.021 44.2319 72.3682 45.2349 73.0625 45.9292C73.7568 46.6235 74.7726 46.9707 76.1099 46.9707H112.215V57ZM176.21 57H166.181V43.4219H130.924V57H120.895V29.3423C120.895 25.3049 121.589 21.5889 122.978 18.1943C124.366 14.7998 126.295 11.881 128.764 9.43799C131.232 6.99495 134.151 5.09196 137.52 3.729C140.889 2.36605 144.566 1.68457 148.552 1.68457H171.157C171.851 1.68457 172.507 1.81315 173.124 2.07031C173.741 2.32747 174.281 2.6875 174.744 3.15039C175.207 3.61328 175.567 4.15332 175.824 4.77051C176.081 5.3877 176.21 6.04346 176.21 6.73779V57ZM130.924 33.3926H166.181V11.7139H148.552C148.244 11.7139 147.588 11.7653 146.585 11.8682C145.608 11.9453 144.463 12.1639 143.152 12.5239C141.866 12.884 140.503 13.4368 139.063 14.1826C137.623 14.9284 136.299 15.957 135.09 17.2686C133.881 18.5801 132.878 20.2259 132.081 22.2061C131.31 24.1605 130.924 26.5392 130.924 29.3423V33.3926ZM252.278 57H242.172V24.0576L224.389 55.3413C223.952 56.1385 223.335 56.7428 222.538 57.1543C221.766 57.5658 220.93 57.7715 220.03 57.7715C219.156 57.7715 218.333 57.5658 217.562 57.1543C216.816 56.7428 216.224 56.1385 215.787 55.3413L197.927 24.0576V57H187.898V5.96631C187.898 4.80908 188.232 3.78044 188.901 2.88037C189.595 1.98031 190.495 1.37598 191.601 1.06738C192.141 0.938802 192.681 0.900228 193.221 0.95166C193.761 0.977376 194.276 1.0931 194.764 1.29883C195.278 1.47884 195.741 1.74886 196.153 2.10889C196.564 2.4432 196.911 2.85465 197.194 3.34326L220.03 43.0361L242.866 3.34326C243.458 2.36605 244.268 1.67171 245.296 1.26025C246.351 0.848796 247.444 0.784505 248.575 1.06738C249.655 1.37598 250.542 1.98031 251.237 2.88037C251.931 3.78044 252.278 4.80908 252.278 5.96631V57Z" fill="white"/>
</svg>
